# xmcd CD database file
#
# Track frame offsets:
#	187
#	32262
#	56000
#	78970
#	100345
#	118685
#	135025
#
# Disc length: 2151 seconds
#
# Revision: 0
# Processed by: cddbd v1.5PL3 Copyright (c) Steve Scherf et al.
# Submitted via: CDex 1.60beta1
#
DISCID=49086507
DTITLE=Dorothy Ashby - Hip Harp
DYEAR=1958
DGENRE=Jazz
TTITLE0=There's A Small Hotel
TTITLE1=Charmaine
TTITLE2=Jollity
TTITLE3=Moolight In Vermont
TTITLE4=Dancing In The Dark
TTITLE5=Back Talk
TTITLE6=Pawky
EXTD=YEAR: 1958
EXTT0=
EXTT1=
EXTT2=
EXTT3=
EXTT4=
EXTT5=
EXTT6=
PLAYORDER=
